<svg xmlns="http://www.w3.org/2000/svg" viewBox="0 0 800 1000" role="img" aria-label="Open book with radiating light and the Arabic wordmark أم القرى, inspired by the Umul Qura logo">
  <style>
    #emblem, #rays, #glow, #medallion, .tw { transform-box: fill-box; transform-origin: center; }
    #emblem { animation: float 7s ease-in-out infinite alternate; }
    #rays { animation: breathe 6s ease-in-out infinite alternate; }
    #glow { animation: pulse 6s ease-in-out infinite alternate; }
    #medallion { animation: spin 90s linear infinite; }
    #flippage { transform-box: fill-box; transform-origin: 0% 50%; opacity: 0; animation: flip 60s ease-in-out infinite; }
    .tw { animation: twinkle 4s ease-in-out infinite alternate; }
    .tw.d1 { animation-delay: -1s; } .tw.d2 { animation-delay: -2s; }
    .tw.d3 { animation-delay: -3s; } .tw.d4 { animation-delay: -1.6s; }
    @keyframes float   { from { transform: translateY(0); }    to { transform: translateY(-10px); } }
    @keyframes breathe { from { transform: scale(1); opacity: 0.75; } to { transform: scale(1.05); opacity: 1; } }
    @keyframes pulse   { from { opacity: 0.45; } to { opacity: 0.9; } }
    @keyframes spin    { to { transform: rotate(360deg); } }
    @keyframes twinkle { from { opacity: 0.15; } to { opacity: 0.85; } }
    /* One 60s cycle with 5 flips at uneven offsets, so gaps vary between ~7s and 15s */
    @keyframes flip {
      0%, 16.1%, 38.9%, 41.1%, 50.9%, 53.1%, 69.9%, 72.1%, 91.9%, 94.1%, 100%
                { transform: scaleX(1); opacity: 0; }
      14%, 39%, 51%, 70%, 92%
                { transform: scaleX(1); opacity: 1; }
      14.8%, 39.8%, 51.8%, 70.8%, 92.8%
                { transform: scaleX(0.08); }
      15.6%, 40.6%, 52.6%, 71.6%, 93.6%
                { transform: scaleX(-1); opacity: 1; }
      16%, 41%, 53%, 72%, 94%
                { transform: scaleX(-1); opacity: 0; }
    }
    @media (prefers-reduced-motion: reduce) {
      #emblem, #rays, #glow, #medallion, .tw, #flippage { animation: none; }
    }
  </style>
  <defs>
    <linearGradient id="bg" x1="0" y1="0" x2="0" y2="1">
      <stop offset="0" stop-color="#124a37"/>
      <stop offset="1" stop-color="#0b2e23"/>
    </linearGradient>
    <radialGradient id="halo">
      <stop offset="0" stop-color="#eeac35" stop-opacity="0.35"/>
      <stop offset="1" stop-color="#eeac35" stop-opacity="0"/>
    </radialGradient>
    <linearGradient id="goldband" x1="0" y1="0" x2="0" y2="1">
      <stop offset="0" stop-color="#eeac35"/>
      <stop offset="1" stop-color="#d38f12"/>
    </linearGradient>
  </defs>

  <!-- Background panel -->
  <rect width="800" height="1000" fill="url(#bg)"/>

  <!-- Twinkling 8-point stars -->
  <g fill="#edc782">
    <path class="tw"    transform="translate(150 175) scale(1.1)" d="M0,-10 L2.5,-2.5 L10,0 L2.5,2.5 L0,10 L-2.5,2.5 L-10,0 L-2.5,-2.5 Z"/>
    <path class="tw d1" transform="translate(645 140) scale(0.8)" d="M0,-10 L2.5,-2.5 L10,0 L2.5,2.5 L0,10 L-2.5,2.5 L-10,0 L-2.5,-2.5 Z"/>
    <path class="tw d2" transform="translate(700 330) scale(1.0)" d="M0,-10 L2.5,-2.5 L10,0 L2.5,2.5 L0,10 L-2.5,2.5 L-10,0 L-2.5,-2.5 Z"/>
    <path class="tw d3" transform="translate(100 360) scale(0.9)" d="M0,-10 L2.5,-2.5 L10,0 L2.5,2.5 L0,10 L-2.5,2.5 L-10,0 L-2.5,-2.5 Z"/>
    <path class="tw d4" transform="translate(300 105) scale(0.7)" d="M0,-10 L2.5,-2.5 L10,0 L2.5,2.5 L0,10 L-2.5,2.5 L-10,0 L-2.5,-2.5 Z"/>
    <path class="tw d2" transform="translate(535 95)  scale(0.9)" d="M0,-10 L2.5,-2.5 L10,0 L2.5,2.5 L0,10 L-2.5,2.5 L-10,0 L-2.5,-2.5 Z"/>
  </g>

  <g id="emblem">
    <!-- Soft golden halo behind the book -->
    <circle id="glow" cx="400" cy="450" r="260" fill="url(#halo)"/>

    <!-- Sun rays -->
    <g id="rays" stroke="#eeac35" stroke-width="5" stroke-linecap="round">
      <line x1="501" y1="423" x2="603" y2="396"/>
      <line x1="495" y1="406" x2="550" y2="380"/>
      <line x1="486" y1="390" x2="572" y2="330"/>
      <line x1="474" y1="376" x2="517" y2="333"/>
      <line x1="460" y1="364" x2="520" y2="278"/>
      <line x1="444" y1="355" x2="470" y2="300"/>
      <line x1="427" y1="349" x2="454" y2="247"/>
      <line x1="409" y1="345" x2="414" y2="286"/>
      <line x1="391" y1="345" x2="382" y2="241"/>
      <line x1="373" y1="349" x2="357" y2="291"/>
      <line x1="356" y1="355" x2="311" y2="260"/>
      <line x1="340" y1="364" x2="305" y2="315"/>
      <line x1="326" y1="376" x2="252" y2="302"/>
      <line x1="314" y1="390" x2="265" y2="355"/>
      <line x1="305" y1="406" x2="210" y2="361"/>
      <line x1="299" y1="423" x2="241" y2="407"/>
    </g>

    <!-- Rising sun peeking over the spine -->
    <path d="M358,462 A42,42 0 0 1 442,462 Z" fill="#edc782"/>

    <!-- Gold underside of the book -->
    <path d="M400,478 C335,435 255,420 168,430 L168,552 C255,542 340,557 400,598 C460,557 545,542 632,552 L632,430 C545,420 465,435 400,478 Z"
          fill="url(#goldband)"/>

    <!-- Open pages -->
    <path d="M400,470 C340,430 260,415 180,425 L180,540 C260,530 340,545 400,585 Z"
          fill="#faf8f2" stroke="#14573f" stroke-width="7" stroke-linejoin="round"/>
    <path d="M400,470 C460,430 540,415 620,425 L620,540 C540,530 460,545 400,585 Z"
          fill="#faf8f2" stroke="#14573f" stroke-width="7" stroke-linejoin="round"/>
    <!-- Page lines -->
    <g fill="none" stroke="#14573f" stroke-width="2.5" stroke-opacity="0.55">
      <path d="M395,505 C340,468 265,453 195,460"/>
      <path d="M395,535 C340,498 265,483 195,490"/>
      <path d="M405,505 C460,468 535,453 605,460"/>
      <path d="M405,535 C460,498 535,483 605,490"/>
    </g>

    <!-- Turning page: a copy of the right page that flips over the spine -->
    <g id="flippage">
      <path d="M400,470 C460,430 540,415 620,425 L620,540 C540,530 460,545 400,585 Z"
            fill="#faf8f2" stroke="#14573f" stroke-width="7" stroke-linejoin="round"/>
      <g fill="none" stroke="#14573f" stroke-width="2.5" stroke-opacity="0.55">
        <path d="M405,505 C460,468 535,453 605,460"/>
        <path d="M405,535 C460,498 535,483 605,490"/>
      </g>
    </g>

    <!-- Pen nib beneath the spine -->
    <path d="M400,700 L377,642 C377,618 388,605 400,598 C412,605 423,618 423,642 Z"
          fill="#eeac35" stroke="#d38f12" stroke-width="4" stroke-linejoin="round"/>
    <line x1="400" y1="640" x2="400" y2="682" stroke="#d38f12" stroke-width="4"/>
    <circle cx="400" cy="633" r="8" fill="#0e3b2e" stroke="#d38f12" stroke-width="3"/>
  </g>

  <!-- Wordmark: "أم القرى" in Khediawy, converted to outlines -->
  <path id="wordmark" fill="url(#goldband)" d="M243.9 776.6Q245.1 774.2 249.9 769.5L254.3 766.2V766.4Q249.5 775.4 250.9 786.1Q252.4 796.8 259.5 804.4Q265.9 811.1 275.7 813Q285.4 814.9 294.1 811.5Q296.7 810.5 298.9 809.3V808.7V807.8Q298.7 804.8 294.9 800.9Q291.5 797.8 290 796.3Q288.6 794.9 286.4 791.9Q284.3 789 283.4 786Q279.9 776.4 285.4 768.3Q291.7 758.8 299.5 754.3Q303.2 752.1 307.4 752.4Q311.5 752.8 314 755.2Q316.6 757.6 317.5 761.1Q318.5 764.7 315.9 769Q314.1 771.8 308.7 776.6Q305 779.9 306 778.2Q306 778 306.1 777.9Q308.9 773.4 305.8 768.5Q302.7 763.6 297.6 763.2Q296.3 763.1 293.2 763.7Q292 768.8 293.6 774.3Q295 778.7 297.7 782.1Q300.4 785.4 304.9 789.7Q312 796.3 306.5 803.8Q300.5 812 292.7 817.7Q284.9 823.3 276.1 824.4Q266.6 825.5 258.1 821.6Q249.5 817.8 244.8 809.7Q240.3 802.2 240 793.2Q239.7 784.3 243.9 776.6ZM299.4 808.9Q300.6 807.9 300.9 807.9Q300 807.9 299.4 808.9Z M354.8 787.3Q354.5 786.7 355.4 785.7Q356.3 784.7 358 783.5Q359.8 782.3 361.1 781.4Q362.2 780.8 363.7 779.7Q364.8 779 364.8 778.8Q365.7 780.2 367.6 783.4Q369.6 786.8 370.5 788.4Q371.4 790.2 372.5 793Q373.2 794.9 373.6 796.5Q375.9 797.4 378.4 797.2V805.7L373.9 806Q372.4 815.2 363.7 823.6Q341.9 845 315.7 841.8Q318.1 839.3 318.9 838.5Q320 837.3 320.3 837.1L321.2 836.2Q322.2 835.2 322.7 834.8Q323.4 834.3 324.3 833.7Q325.2 833.2 325.7 833.3Q336.3 834.5 346 831.9Q352.1 830.3 357.2 827.4Q357.3 827.3 358.3 826.6Q359.2 825.5 359.2 825.3Q360.2 824.2 360.9 822.9Q367 812.2 362.1 800.1Q361.4 798 360.2 796Q358.8 793.7 357.3 791.3Q355.6 788.9 354.8 787.3Z M402.3 751.8Q402.4 752.2 401.2 753.7Q400.1 755.1 397.8 757.6Q395.8 759.6 394.2 761L393.9 761.3L393.2 761.7Q392.8 762 392.5 762.1L392.3 762.2Q392.1 760.3 389.7 758.1Q389.1 757.6 385 753.9Q384.7 753.6 387.1 750.9Q389.4 748.1 392 745.6Q394.6 743.2 395 743.6Q395.6 744 397.2 745.5Q398.9 747 399.7 747.8Q402.1 750 402.3 751.8ZM419.6 751.8Q419.7 752.2 418.5 753.7Q417.4 755.1 415 757.6Q413.1 759.6 411.5 761Q411.3 761.1 411.1 761.3L410.5 761.7Q410.1 762 409.8 762.1L409.6 762.2Q409.4 760.3 406.9 758.1Q406.4 757.6 402.3 753.9Q402 753.6 404.3 750.9Q406.7 748.1 409.3 745.6Q411.9 743.2 412.3 743.6Q412.8 744 414.5 745.5Q416.1 747 417 747.8Q419.4 750 419.6 751.8ZM393 803.5Q391 804.5 388.9 805.1Q386.8 805.7 385.3 806.1Q383.9 806.4 381.1 806.5Q378.3 806.7 377.3 806.7Q376.4 806.7 372.9 806.6Q369.5 806.5 369 806.5Q369.2 806.4 371.2 803.7Q373.2 801.1 373.4 800.9Q373.6 800.6 374.5 799.7Q375.4 798.7 376 798.1Q376.6 797.5 377.5 796.9Q378.4 796.3 379 796.3H383.4Q380.1 791.7 380.6 786.9Q381.2 782.4 385.2 777.9Q389.3 773.5 394.1 770.1Q398.6 766.9 403.9 766.6Q409.1 766.4 413.4 770.1Q420 776.6 409.7 789Q407.2 791.9 405 794.1Q411.7 796.3 423.8 796.3Q423.7 796.3 422.7 797.5Q421.8 798.7 420.7 800.2Q419.6 801.6 419.4 801.9Q419.2 802 418.3 803Q417.5 804.1 416.9 804.7Q416.3 805.3 415.4 805.9Q414.5 806.5 413.8 806.5Q406.8 806.5 402.1 806Q397.5 805.4 393 803.5ZM390.9 777.5Q390.6 778.6 390.6 779Q390.8 780.6 391.4 782.4Q394.2 789.7 402 793Q403.8 791.9 404.6 791.6Q405.2 790.5 405.6 789.4Q406.4 786.8 405.7 784.5Q404.8 780.8 401.3 778.8Q397.8 776.8 393.6 777.1Q392.3 777.2 390.9 777.5Z M412.2 806.3Q412.3 806.3 413.3 805Q414.2 803.8 415.3 802.4Q416.4 800.9 416.7 800.6Q416.8 800.5 417.7 799.5Q418.6 798.5 419.2 797.8Q419.8 797.2 420.7 796.6Q421.6 796 422.2 796Q427.9 796 431.2 795.3Q432.5 795 433.6 794.7Q433.8 793.4 434.2 791.7Q435.3 786.7 435.3 779Q435.3 773.9 434.4 767Q433.4 760.2 432.5 755Q431.5 749.8 431.5 743.2Q431.5 736.7 433.3 731.2Q433.6 730.4 434.3 729.4Q435.1 728.4 435.7 727.7Q436.3 727 437.5 725.9Q438.8 724.8 439 724.5Q439.7 723.8 441.5 722.4Q443.3 721 443.2 721.5Q441.9 725.6 441.7 730.5Q441.5 735.4 441.9 738.5Q442.2 741.7 443.2 747.6Q444.3 753.6 444.5 756.1Q446.9 774 443.4 784.9Q440.6 793.9 429.4 802.2Q423.8 806.3 412.2 806.3Z M452.5 805.2Q453.6 800 453.6 789.9V782.4Q453.6 764.7 450 735.1Q454.5 730.6 459.8 727L460.7 727.3Q463.2 747.8 463.2 780.9Q463.2 788.7 462.5 793.4Q462.4 796.4 460.4 799.1Q458.4 801.9 453.9 805.7Z M505.7 779.8Q500.5 784.9 500.1 784.5Q499.7 784 504.6 778.8Q511.1 772 512.6 757.6Q512.7 756.9 513.2 756Q513.8 755.1 514.4 754.5Q515 753.9 515.9 753.1Q516.8 752.2 517.1 752L522.6 747.3Q524.5 758.8 529.4 766.9Q534.4 775 544.1 779.2V779.5Q541.1 785.4 534.5 792Q532.3 794.2 531.1 795.3Q529.8 796.4 527.6 797.7Q525.3 799 523.1 799.4Q521.5 799.7 519.9 799.4Q518.3 799.1 515.9 798.5Q513.4 797.8 512.7 797.5Q506.4 796.1 499.9 797.5Q499.1 797.6 498.2 798V798.9Q498.2 800.8 498.7 803.3Q500.4 809.2 507.4 816.8Q516.7 827 512 841.4Q511.7 842.3 510.9 843.4Q510.1 844.4 509.5 845Q508.9 845.6 507.6 846.7Q506.4 847.8 506.1 848.1Q503.5 850.6 502 851.1Q506 839.3 500.9 831.4Q499.9 829.9 495.3 824.4Q490.6 819 489.2 815Q487.9 811.8 488.4 808.5Q488.8 805.2 490.3 802.8Q491.7 800.4 494.3 797.5Q502.1 788.9 509.3 787.2Q516.8 785.6 524.4 787.6Q530.4 789.3 532 789.1Q532.3 789.1 532.7 789Q532 788.4 531.1 788.2Q530.5 787.8 528.9 786.7Q527.2 785.6 526.6 785.1Q526 784.6 524.7 783.6Q523.4 782.5 522.6 781.9Q521.9 781.2 521 780.1Q520.1 779 519.3 777.7Q516.8 773.8 515 768.1Q511.3 773.9 505.7 779.8Z M544.8 736Q544.7 735.5 545.3 734.6Q545.9 733.7 546.6 733Q547.3 732.3 548.2 731.4Q549.2 730.6 549.5 730.4Q549.7 730 552.3 727.8Q554.8 725.6 554.9 725.8Q563.3 763.3 557.8 801.7Q557.7 802.6 556.9 803.6Q556.2 804.6 555.4 805.4Q554.7 806.1 553.5 807.2Q552.3 808.3 552.1 808.5Q547.7 812.7 548 811.5Q553.3 773.6 544.8 736ZM558.7 711.2Q559.2 712.2 553.2 717Q551.2 714.2 548.6 713.1Q547.7 712.9 546.2 712.6Q546.4 715.2 548.5 717.1Q549.9 718.5 551.7 719Q552.3 719.2 555.2 718.8Q557.3 717.7 559.3 716.2Q559.7 715.9 559.7 716Q559.9 716.2 559.2 717Q557.6 719 556.5 720.3Q555.5 721.5 553.5 722.9Q551.5 724.4 549.6 724.8Q548.9 725.2 548.4 725.5Q544.8 727.3 540.4 728.5V728.6L539.3 728.8Q539 728.9 541 726.4Q543.4 723.8 544 723.6Q540.4 721 540.7 717Q541 714.5 543.2 711.9Q545.3 709.3 547.8 707.6Q551 706.1 553.8 707.3Q556.7 708.5 558.7 711.2Z"/>

  <!-- Slowly turning 8-point star medallion -->
  <g id="medallion" fill="none" stroke="#e4c27e" stroke-opacity="0.55" stroke-width="3">
    <rect x="352" y="867" width="96" height="96"/>
    <rect x="352" y="867" width="96" height="96" transform="rotate(45 400 915)"/>
    <circle cx="400" cy="915" r="30" stroke-opacity="0.35"/>
  </g>
</svg>
